<?xml version="1.0" encoding="utf-8"?>
<!-- Generator: Adobe Illustrator 22.1.0, SVG Export Plug-In . SVG Version: 6.00 Build 0)  -->
<svg version="1.1" id="Capa_1" xmlns="http://www.w3.org/2000/svg" xmlns:xlink="http://www.w3.org/1999/xlink" x="0px" y="0px"
	 viewBox="0 0 480 480" style="enable-background:new 0 0 480 480;" xml:space="preserve">
<style type="text/css">
	.st0{fill:#FFFFFF;}
</style>
<g>
	<g>
		<path class="st0" d="M360,0H120C97.9,0,80,17.9,80,40v368c0,19,13.4,35.4,32,39.2V480h48v-32h160v32h48v-32.8
			c18.6-3.8,32-20.2,32-39.2V40C400,17.9,382.1,0,360,0z M144,464h-16v-16h16V464z M352,464h-16v-16h16V464z M384,408
			c0,13.3-10.7,24-24,24H120c-13.3,0-24-10.7-24-24V40c0-13.3,10.7-24,24-24h240c13.3,0,24,10.7,24,24V408z"/>
	</g>
</g>
<g>
	<g>
		<path class="st0" d="M240,160c-70.7,0-128,57.3-128,128c0.1,70.7,57.3,127.9,128,128c70.7,0,128-57.3,128-128S310.7,160,240,160z
			 M240,400c-61.9,0-112-50.1-112-112c0.1-61.8,50.2-111.9,112-112c61.9,0,112,50.1,112,112S301.9,400,240,400z"/>
	</g>
</g>
<g>
	<g>
		<path class="st0" d="M240,192c-53,0-96,43-96,96c0.1,53,43,95.9,96,96c53,0,96-43,96-96S293,192,240,192z M240,368
			c-44.2,0-80-35.8-80-80c0-44.2,35.8-80,80-80c44.2,0,80,35.8,80,80S284.2,368,240,368z"/>
	</g>
</g>
<g>
	<g>
		<path class="st0" d="M240,32c-30.9,0-56,25.1-56,56c0,30.9,25.1,56,56,56c30.9,0,56-25.1,56-56S270.9,32,240,32z M240,128
			c-22.1,0-40-17.9-40-40c0-22.1,17.9-40,40-40c22.1,0,40,17.9,40,40S262.1,128,240,128z"/>
	</g>
</g>
<g>
	<g>
		<path class="st0" d="M240,64c-13.3,0-24,10.7-24,24s10.7,24,24,24s24-10.7,24-24S253.3,64,240,64z M240,96c-4.4,0-8-3.6-8-8
			s3.6-8,8-8s8,3.6,8,8S244.4,96,240,96z"/>
	</g>
</g>
<g>
	<g>
		<rect x="112" y="32" class="st0" width="16" height="16"/>
	</g>
</g>
<g>
	<g>
		<rect x="352" y="32" class="st0" width="16" height="16"/>
	</g>
</g>
<g>
	<g>
		<rect x="112" y="400" class="st0" width="16" height="16"/>
	</g>
</g>
<g>
	<g>
		<rect x="352" y="400" class="st0" width="16" height="16"/>
	</g>
</g>
<g>
	<g>
		<path class="st0" d="M240,248c-22.1,0-40,17.9-40,40c0,22.1,17.9,40,40,40c22.1,0,40-17.9,40-40S262.1,248,240,248z M240,312
			c-13.3,0-24-10.7-24-24s10.7-24,24-24s24,10.7,24,24S253.3,312,240,312z"/>
	</g>
</g>
<g>
	<g>
		<path class="st0" d="M48,280H16c-4.4,0-8,3.6-8,8s3.6,8,8,8h32c4.4,0,8-3.6,8-8S52.4,280,48,280z"/>
	</g>
</g>
<g>
	<g>
		<path class="st0" d="M53.7,226.3l-24-24c-3.2-3.1-8.2-3-11.3,0.2c-3,3.1-3,8,0,11.1l24,24c3.2,3.1,8.2,3,11.3-0.2
			C56.7,234.4,56.7,229.4,53.7,226.3z"/>
	</g>
</g>
<g>
	<g>
		<path class="st0" d="M53.5,338.3c-3.1-3-8-3-11.1,0l-24,24c-3.2,3.1-3.3,8.1-0.2,11.3s8.1,3.3,11.3,0.2c0.1-0.1,0.1-0.1,0.2-0.2
			l24-24C56.7,346.5,56.6,341.4,53.5,338.3z"/>
	</g>
</g>
<g>
	<g>
		<path class="st0" d="M464,280h-32c-4.4,0-8,3.6-8,8s3.6,8,8,8h32c4.4,0,8-3.6,8-8S468.4,280,464,280z"/>
	</g>
</g>
<g>
	<g>
		<path class="st0" d="M461.5,202.3c-3.1-3-8-3-11.1,0l-24,24c-3.1,3.1-3.1,8.2,0,11.3c1.5,1.5,3.5,2.3,5.7,2.3
			c2.1,0,4.2-0.8,5.7-2.3l24-24C464.7,210.5,464.6,205.4,461.5,202.3z"/>
	</g>
</g>
<g>
	<g>
		<path class="st0" d="M461.7,362.3l-24-24c-3.2-3.1-8.2-3-11.3,0.2c-3,3.1-3,8,0,11.1l24,24c3.2,3.1,8.2,3,11.3-0.2
			C464.7,370.4,464.7,365.4,461.7,362.3z"/>
	</g>
</g>
</svg>
