<?xml version="1.0" encoding="utf-8"?>
<!-- Generator: Adobe Illustrator 22.1.0, SVG Export Plug-In . SVG Version: 6.00 Build 0)  -->
<svg version="1.1" id="Capa_1" xmlns="http://www.w3.org/2000/svg" xmlns:xlink="http://www.w3.org/1999/xlink" x="0px" y="0px"
	 viewBox="0 0 479.6 479.6" style="enable-background:new 0 0 479.6 479.6;" xml:space="preserve">
<style type="text/css">
	.st0{fill:#FFFFFF;}
</style>
<g>
	<g>
		<path class="st0" d="M404.4,65.4c-96.3-90.9-248.1-86.5-339,9.8s-86.5,248.1,9.8,339c44.6,42,103.5,65.5,164.8,65.4
			c65.4,0,127.9-26.7,173-73.9c0.2-0.1,0.5-0.3,0.7-0.5c0.2-0.3,0.4-0.5,0.5-0.8C505.1,308.1,500.8,156.3,404.4,65.4z M80,396.4
			C-3.8,310.9-5.5,174.6,76.2,87.1v0l66.2,64.6H128c-4.4,0-8,3.6-8,8v144c0,4.4,3.6,8,8,8h76.5l109.6,117.5c3,3.2,8.1,3.5,11.3,0.5
			c1.6-1.5,2.6-3.7,2.6-5.9v-90.9l68.6,66.9C308.2,486.2,166.5,484.7,80,396.4z M280,285.9v83.1l-64-68.6v-52.8c0-4.4-3.6-8-8-8
			s-8,3.6-8,8v48h-64v-128h22.7L280,285.9z M181.6,167.6H208c2,0,4-0.8,5.4-2.1l66.6-61.8v159.9L181.6,167.6z M312,317.2v86.2
			l-16.4-17.6c0.2-0.7,0.4-1.4,0.4-2.1v-82.1L312,317.2z M296,279.2V88.8L312,74v220.9L296,279.2z M407.6,388.1L328,310.4V55.6
			c0-4.4-3.6-8-8-8c-2,0-4,0.8-5.5,2.1L204.8,151.6h-39.6L87.5,75.8c90.4-84.3,232.1-79.4,316.4,11c38.7,41.5,60.2,96.1,60.1,152.8
			C464,294.4,443.9,347.2,407.6,388.1z"/>
	</g>
</g>
</svg>
