<?xml version="1.0" encoding="utf-8"?>
<!-- Generator: Adobe Illustrator 22.1.0, SVG Export Plug-In . SVG Version: 6.00 Build 0)  -->
<svg version="1.1" id="Capa_1" xmlns="http://www.w3.org/2000/svg" xmlns:xlink="http://www.w3.org/1999/xlink" x="0px" y="0px"
	 viewBox="0 0 464 464" style="enable-background:new 0 0 464 464;" xml:space="preserve">
<style type="text/css">
	.st0{fill:#FFFFFF;}
</style>
<g>
	<g>
		<path class="st0" d="M232,0c-48.6,0-88,39.4-88,88v112c0.1,48.6,39.4,87.9,88,88c48.6-0.1,87.9-39.4,88-88V88
			C320,39.4,280.6,0,232,0z M304,104h-48c-4.4,0-8,3.6-8,8s3.6,8,8,8h48v16h-48c-4.4,0-8,3.6-8,8s3.6,8,8,8h48v16h-48
			c-4.4,0-8,3.6-8,8s3.6,8,8,8h48v16h-48c-4.4,0-8,3.6-8,8s3.6,8,8,8h46.1c-4.1,17.9-14.9,33.6-30.1,43.8V240c0-4.4-3.6-8-8-8
			s-8,3.6-8,8v27.8c-5.2,1.9-10.5,3.1-16,3.7V240c0-4.4-3.6-8-8-8s-8,3.6-8,8v31.5c-5.5-0.6-10.8-1.9-16-3.7V240c0-4.4-3.6-8-8-8
			s-8,3.6-8,8v19.8c-15.3-10.2-26-25.9-30.1-43.8H208c4.4,0,8-3.6,8-8s-3.6-8-8-8h-48v-16h48c4.4,0,8-3.6,8-8s-3.6-8-8-8h-48v-16h48
			c4.4,0,8-3.6,8-8s-3.6-8-8-8h-48v-16h48c4.4,0,8-3.6,8-8s-3.6-8-8-8h-48V88h48c4.4,0,8-3.6,8-8s-3.6-8-8-8h-46.1
			c4.1-17.9,14.9-33.6,30.1-43.8V48c0,4.4,3.6,8,8,8s8-3.6,8-8V20.2c5.2-1.9,10.5-3.1,16-3.7V48c0,4.4,3.6,8,8,8s8-3.6,8-8V16.5
			c5.5,0.6,10.8,1.9,16,3.7V48c0,4.4,3.6,8,8,8s8-3.6,8-8V28.2c15.3,10.2,26,25.9,30.1,43.8H256c-4.4,0-8,3.6-8,8s3.6,8,8,8h48V104z
			"/>
	</g>
</g>
<g>
	<g>
		<path class="st0" d="M352,136v-16c0-4.4-3.6-8-8-8s-8,3.6-8,8v80c0,57.4-46.6,104-104,104s-104-46.6-104-104v-80c0-4.4-3.6-8-8-8
			s-8,3.6-8,8v16H96v16h16v48c0.1,57,40.2,106.1,96,117.6V416h-40c-22.1,0-40,17.9-40,40v8h208v-8c0-22.1-17.9-40-40-40h-40v-98.4
			c55.8-11.5,95.9-60.6,96-117.6v-48h16v-16H352z M224,319.6c2.7,0.2,5.3,0.4,8,0.4s5.3-0.2,8-0.4V416h-16V319.6z M296,432
			c10.2,0,19.2,6.4,22.6,16H145.4c3.4-9.6,12.5-16,22.6-16H296z"/>
	</g>
</g>
</svg>
