<?xml version="1.0" encoding="utf-8"?>
<!-- Generator: Adobe Illustrator 22.1.0, SVG Export Plug-In . SVG Version: 6.00 Build 0)  -->
<svg version="1.1" id="Capa_1" xmlns="http://www.w3.org/2000/svg" xmlns:xlink="http://www.w3.org/1999/xlink" x="0px" y="0px"
	 viewBox="0 0 480.1 480.1" style="enable-background:new 0 0 480.1 480.1;" xml:space="preserve">
<style type="text/css">
	.st0{fill:#FFFFFF;}
</style>
<g>
	<g>
		<path class="st0" d="M458.5,140.7L458.5,140.7C403.7,20.1,261.4-33.3,140.7,21.6c-52.8,24-95.1,66.3-119.2,119.2
			C7.3,171.9,0,205.8,0,240v75.2c0,14.9,5.9,29.1,16.4,39.6l32.3,32.3l4.4,12.1c13.6,35.9,48.2,59.4,86.6,58.8
			c1.7,0,3.4-0.2,5.1-0.3l0.4,1.1c6,16.7,24.5,25.4,41.2,19.3h0l1.3-0.5c16.7-6,25.4-24.5,19.3-41.2c0,0,0,0,0,0l-63.4-175.2
			c-6.1-16.7-24.5-25.3-41.2-19.3l-1.3,0.5c-14.2,5.1-22.9,19.4-21,34.3c-13.8,10-24.6,23.5-31.4,39.1c-0.5-1.1-0.8-2.3-0.9-3.5
			v-72.4c0-106,86-192,192-192s192,86,192,192v72.4c0,0.6-0.2,1.1-0.3,1.7c-6.9-14.9-17.4-27.7-30.6-37.4c2-14.9-6.7-29.2-20.9-34.3
			l-1.3-0.5c-16.7-6-35.1,2.6-41.2,19.3l-63.4,175.2c-6,16.7,2.6,35.1,19.3,41.2l1.3,0.5c16.7,6,35.2-2.6,41.2-19.3l0.4-1.1
			c1.7,0.1,3.4,0.3,5.1,0.3c38.4,0.7,73.1-22.8,86.6-58.7l5.1-14.2l30.3-30.3c10.5-10.5,16.4-24.7,16.4-39.6v-75.2
			C480.1,205.8,472.7,171.9,458.5,140.7z M97.5,265.8c1.8-3.9,5.1-6.9,9.2-8.3l1.3-0.5c8.4-3,17.7,1.3,20.7,9.7l63.4,175.2
			c3,8.4-1.3,17.6-9.7,20.7c0,0,0,0,0,0l-1.3,0.5c-8.4,3-17.7-1.3-20.7-9.7l-2.4-6.7L97,278.1C95.5,274.1,95.7,269.7,97.5,265.8z
			 M85.3,293.1L85.3,293.1L139.2,442c-29,0.3-55.6-16-68.4-42c0.2,0,0.4,0,0.6,0c0.2,0,0.4,0,0.6,0c0.8,0,1.5-0.2,2.3-0.2
			s1.3-0.1,2-0.2c1-0.2,2.1-0.5,3.1-0.8c0.6-0.2,1.2-0.3,1.7-0.5c1.1-0.4,2.1-1,3.1-1.6c0.5-0.3,1-0.5,1.4-0.8
			c11.6-7.5,14.9-22.9,7.4-34.4c-1-1.5-2.1-2.9-3.4-4.2L61,328.8C65.6,314.8,74,302.5,85.3,293.1z M32,240v72.4c0,6.4,2.5,12.5,7,17
			l39.3,39.3c3.5,3.5,3.5,9.2,0,12.7s-9.2,3.5-12.7,0l-37.9-38C20.2,336,16,325.8,16,315.2V240c-0.1-30.3,6.1-60.2,18-88h17.5
			C38.7,179.6,32,209.6,32,240z M240,32c-74.3,0-143,39.7-180.2,104H41.6C99.1,26.5,234.4-15.8,344,41.6
			c40.3,21.1,73.3,54.1,94.4,94.4h-18.2C383,71.7,314.3,32.1,240,32z M332.2,422.7l-8.7,24l-2.4,6.7c-3,8.4-12.3,12.8-20.7,9.7
			c0,0,0,0,0,0l-1.3-0.5c-8.4-3-12.7-12.3-9.7-20.7l63.4-175.2c3-8.4,12.3-12.8,20.7-9.7c0,0,0,0,0,0l1.3,0.5
			c8.4,3,12.7,12.3,9.7,20.6c0,0,0,0,0,0L332.2,422.7z M342.2,442l35.4-97.8l18.5-51.2c11,9.2,19.3,21.2,24,34.7l-29.6,29.7
			c-9.7,9.8-9.7,25.6,0,35.3c1.3,1.3,2.7,2.4,4.2,3.4c0.5,0.3,1,0.5,1.6,0.8c1,0.6,2.1,1.1,3.2,1.5c0.6,0.2,1.3,0.4,1.9,0.6
			c1,0.3,2.1,0.5,3.1,0.7c0.7,0.1,1.4,0.1,2,0.2c0.6,0,1.1,0.2,1.6,0.2s1-0.1,1.5-0.1s0.8,0,1.2,0
			C397.9,425.9,371.2,442.3,342.2,442z M464,315.2c0,10.6-4.2,20.8-11.7,28.3L420.8,375l-6.4,6.4c-3.5,3.5-9.2,3.5-12.7,0
			s-3.5-9.2,0-12.7l39.3-39.3c4.5-4.5,7-10.6,7-17V240c0-30.4-6.7-60.4-19.5-88H446c11.9,27.8,18.1,57.7,18,88L464,315.2L464,315.2z
			"/>
	</g>
</g>
</svg>
