<?xml version="1.0" encoding="utf-8"?>
<!-- Generator: Adobe Illustrator 22.1.0, SVG Export Plug-In . SVG Version: 6.00 Build 0)  -->
<svg version="1.1" id="Capa_1" xmlns="http://www.w3.org/2000/svg" xmlns:xlink="http://www.w3.org/1999/xlink" x="0px" y="0px"
	 viewBox="0 0 480 480" style="enable-background:new 0 0 480 480;" xml:space="preserve">
<style type="text/css">
	.st0{fill:#FFFFFF;}
</style>
<g>
	<g>
		<rect x="208" y="424" class="st0" width="64" height="16"/>
	</g>
</g>
<g>
	<g>
		<rect x="112" y="424" class="st0" width="64" height="16"/>
	</g>
</g>
<g>
	<g>
		<rect x="16" y="424" class="st0" width="64" height="16"/>
	</g>
</g>
<g>
	<g>
		<rect x="400" y="424" class="st0" width="64" height="16"/>
	</g>
</g>
<g>
	<g>
		<rect x="304" y="424" class="st0" width="64" height="16"/>
	</g>
</g>
<g>
	<g>
		<rect x="208" y="392" class="st0" width="64" height="16"/>
	</g>
</g>
<g>
	<g>
		<rect x="112" y="392" class="st0" width="64" height="16"/>
	</g>
</g>
<g>
	<g>
		<rect x="16" y="392" class="st0" width="64" height="16"/>
	</g>
</g>
<g>
	<g>
		<rect x="400" y="392" class="st0" width="64" height="16"/>
	</g>
</g>
<g>
	<g>
		<rect x="304" y="392" class="st0" width="64" height="16"/>
	</g>
</g>
<g>
	<g>
		<rect x="208" y="360" class="st0" width="64" height="16"/>
	</g>
</g>
<g>
	<g>
		<rect x="112" y="360" class="st0" width="64" height="16"/>
	</g>
</g>
<g>
	<g>
		<rect x="16" y="360" class="st0" width="64" height="16"/>
	</g>
</g>
<g>
	<g>
		<rect x="400" y="360" class="st0" width="64" height="16"/>
	</g>
</g>
<g>
	<g>
		<rect x="304" y="360" class="st0" width="64" height="16"/>
	</g>
</g>
<g>
	<g>
		<rect x="208" y="328" class="st0" width="64" height="16"/>
	</g>
</g>
<g>
	<g>
		<rect x="112" y="328" class="st0" width="64" height="16"/>
	</g>
</g>
<g>
	<g>
		<rect x="16" y="328" class="st0" width="64" height="16"/>
	</g>
</g>
<g>
	<g>
		<rect x="400" y="328" class="st0" width="64" height="16"/>
	</g>
</g>
<g>
	<g>
		<rect x="304" y="328" class="st0" width="64" height="16"/>
	</g>
</g>
<g>
	<g>
		<rect x="112" y="296" class="st0" width="64" height="16"/>
	</g>
</g>
<g>
	<g>
		<rect x="16" y="296" class="st0" width="64" height="16"/>
	</g>
</g>
<g>
	<g>
		<rect x="400" y="296" class="st0" width="64" height="16"/>
	</g>
</g>
<g>
	<g>
		<rect x="304" y="296" class="st0" width="64" height="16"/>
	</g>
</g>
<g>
	<g>
		<rect x="112" y="264" class="st0" width="64" height="16"/>
	</g>
</g>
<g>
	<g>
		<rect x="16" y="264" class="st0" width="64" height="16"/>
	</g>
</g>
<g>
	<g>
		<rect x="400" y="264" class="st0" width="64" height="16"/>
	</g>
</g>
<g>
	<g>
		<rect x="304" y="264" class="st0" width="64" height="16"/>
	</g>
</g>
<g>
	<g>
		<rect x="112" y="232" class="st0" width="64" height="16"/>
	</g>
</g>
<g>
	<g>
		<rect x="400" y="232" class="st0" width="64" height="16"/>
	</g>
</g>
<g>
	<g>
		<rect x="304" y="232" class="st0" width="64" height="16"/>
	</g>
</g>
<g>
	<g>
		<rect x="112" y="200" class="st0" width="64" height="16"/>
	</g>
</g>
<g>
	<g>
		<rect x="400" y="200" class="st0" width="64" height="16"/>
	</g>
</g>
<g>
	<g>
		<rect x="304" y="200" class="st0" width="64" height="16"/>
	</g>
</g>
<g>
	<g>
		<rect x="112" y="168" class="st0" width="64" height="16"/>
	</g>
</g>
<g>
	<g>
		<rect x="304" y="168" class="st0" width="64" height="16"/>
	</g>
</g>
<g>
	<g>
		<rect x="112" y="136" class="st0" width="64" height="16"/>
	</g>
</g>
<g>
	<g>
		<rect x="304" y="136" class="st0" width="64" height="16"/>
	</g>
</g>
<g>
	<g>
		<rect x="304" y="104" class="st0" width="64" height="16"/>
	</g>
</g>
<g>
	<g>
		<rect x="304" y="72" class="st0" width="64" height="16"/>
	</g>
</g>
<g>
	<g>
		<rect x="304" y="40" class="st0" width="64" height="16"/>
	</g>
</g>
<g>
	<g>
		<rect x="304" y="8" class="st0" width="64" height="16"/>
	</g>
</g>
<g>
	<g>
		<rect y="456" class="st0" width="480" height="16"/>
	</g>
</g>
</svg>
