<?xml version="1.0" encoding="utf-8"?>
<!-- Generator: Adobe Illustrator 22.1.0, SVG Export Plug-In . SVG Version: 6.00 Build 0)  -->
<svg version="1.1" id="Capa_1" xmlns="http://www.w3.org/2000/svg" xmlns:xlink="http://www.w3.org/1999/xlink" x="0px" y="0px"
	 viewBox="0 0 472 472" style="enable-background:new 0 0 472 472;" xml:space="preserve">
<style type="text/css">
	.st0{fill:#FFFFFF;}
</style>
<g>
	<g>
		<path class="st0" d="M236,0C105.7,0,0,105.7,0,236c0.1,130.3,105.7,235.9,236,236c130.3,0,236-105.7,236-236S366.3,0,236,0z
			 M236,456c-121.5,0-220-98.5-220-220c0.1-121.4,98.6-219.9,220-220c121.5,0,220,98.5,220,220S357.5,456,236,456z"/>
	</g>
</g>
<g>
	<g>
		<path class="st0" d="M240,160c-39.8,0-72,32.2-72,72c0,39.7,32.3,72,72,72c39.8,0,72-32.2,72-72C312,192.2,279.8,160,240,160z
			 M240,288c-30.9,0-56-25.1-56-56c0-30.9,25.1-56,56-56c30.9,0,56,25.1,56,56S270.9,288,240,288z"/>
	</g>
</g>
<g>
	<g>
		<path class="st0" d="M128,232h-16c0.1,70.7,57.3,127.9,128,128v-16C178.2,343.9,128.1,293.8,128,232z"/>
	</g>
</g>
<g>
	<g>
		<path class="st0" d="M240,104v16c61.8,0.1,111.9,50.2,112,112h16C367.9,161.3,310.7,104.1,240,104z"/>
	</g>
</g>
<g>
	<g>
		<path class="st0" d="M72,232H56c0.1,101.6,82.4,183.9,184,184v-16C147.3,399.9,72.1,324.7,72,232z"/>
	</g>
</g>
<g>
	<g>
		<path class="st0" d="M240,48v16c92.7,0.1,167.9,75.3,168,168h16C423.9,130.4,341.6,48.1,240,48z"/>
	</g>
</g>
<g>
	<g>
		<path class="st0" d="M240,192c-22.1,0-40,17.9-40,40c0,22.1,17.9,40,40,40c22.1,0,40-17.9,40-40S262.1,192,240,192z M240,256
			c-13.3,0-24-10.7-24-24s10.7-24,24-24s24,10.7,24,24S253.3,256,240,256z"/>
	</g>
</g>
</svg>
