<?xml version="1.0" encoding="utf-8"?>
<!-- Generator: Adobe Illustrator 22.1.0, SVG Export Plug-In . SVG Version: 6.00 Build 0)  -->
<svg version="1.1" id="Capa_1" xmlns="http://www.w3.org/2000/svg" xmlns:xlink="http://www.w3.org/1999/xlink" x="0px" y="0px"
	 viewBox="0 0 480 480" style="enable-background:new 0 0 480 480;" xml:space="preserve">
<style type="text/css">
	.st0{fill:#FFFFFF;}
</style>
<g>
	<g>
		<path class="st0" d="M464,64H16C7.2,64,0,71.2,0,80v320c0,8.8,7.2,16,16,16h448c8.8,0,16-7.2,16-16V80C480,71.2,472.8,64,464,64z
			 M89.8,400l12.8-64h274.9l12.8,64H89.8z M464,400h-57.4l-14.7-73.6c-0.8-3.7-4-6.4-7.8-6.4H96c-3.8,0-7.1,2.7-7.8,6.4L73.4,400H16
			V80h448V400z"/>
	</g>
</g>
<g>
	<g>
		<path class="st0" d="M429.7,138.3l-24-24c-1.5-1.5-3.5-2.3-5.7-2.3H80c-2.1,0-4.2,0.8-5.7,2.3l-24,24c-1.5,1.5-2.3,3.5-2.3,5.7
			v152c0,4.4,3.6,8,8,8h368c4.4,0,8-3.6,8-8V144C432,141.9,431.2,139.8,429.7,138.3z M416,288H64V147.3L83.3,128h313.4l19.3,19.3
			V288z"/>
	</g>
</g>
<g>
	<g>
		<rect x="32" y="96" class="st0" width="16" height="16"/>
	</g>
</g>
<g>
	<g>
		<rect x="432" y="96" class="st0" width="16" height="16"/>
	</g>
</g>
<g>
	<g>
		<rect x="32" y="368" class="st0" width="16" height="16"/>
	</g>
</g>
<g>
	<g>
		<rect x="432" y="368" class="st0" width="16" height="16"/>
	</g>
</g>
<g>
	<g>
		<rect x="128" y="368" class="st0" width="16" height="16"/>
	</g>
</g>
<g>
	<g>
		<rect x="168" y="352" class="st0" width="16" height="16"/>
	</g>
</g>
<g>
	<g>
		<rect x="336" y="368" class="st0" width="16" height="16"/>
	</g>
</g>
<g>
	<g>
		<rect x="296" y="352" class="st0" width="16" height="16"/>
	</g>
</g>
<g>
	<g>
		<rect x="96" y="144" class="st0" width="288" height="16"/>
	</g>
</g>
<g>
	<g>
		<path class="st0" d="M352,176H128c-26.5,0-48,21.5-48,48s21.5,48,48,48h224c26.5,0,48-21.5,48-48S378.5,176,352,176z M158.9,232
			c-2.9,11.2-11.7,19.9-22.9,22.9V240h-16v14.9c-11.2-2.9-19.9-11.7-22.9-22.9h0H112v-16H97.1c2.9-11.2,11.7-19.9,22.9-22.9V208h16
			v-14.9c11.2,2.9,19.9,11.7,22.9,22.9H144v16H158.9z M209.9,256h-46.2c16.4-18.2,16.4-45.8,0-64h46.2
			C218,212.6,218,235.4,209.9,256z M253.1,256h-26.3c6.9-20.8,6.9-43.2,0-64h26.3C246.3,212.8,246.3,235.2,253.1,256z M316.3,256
			h-46.2c-4-10.2-6.1-21-6.1-32c0-11,2.1-21.8,6.1-32h46.2C299.9,210.2,299.9,237.8,316.3,256z M382.9,232
			c-2.9,11.2-11.7,19.9-22.9,22.9V240h-16v14.9c-11.2-2.9-19.9-11.7-22.9-22.9H336v-16h-14.9c2.9-11.2,11.7-19.9,22.9-22.9V208h16
			v-14.9c11.2,2.9,19.9,11.7,22.9,22.9H368v16H382.9z"/>
	</g>
</g>
</svg>
