<?xml version="1.0" encoding="utf-8"?>
<!-- Generator: Adobe Illustrator 22.1.0, SVG Export Plug-In . SVG Version: 6.00 Build 0)  -->
<svg version="1.1" id="Capa_1" xmlns="http://www.w3.org/2000/svg" xmlns:xlink="http://www.w3.org/1999/xlink" x="0px" y="0px"
	 viewBox="0 0 480 480" style="enable-background:new 0 0 480 480;" xml:space="preserve">
<style type="text/css">
	.st0{fill:#FFFFFF;}
</style>
<g>
	<g>
		<path class="st0" d="M316,8c-48.6,0-88,39.4-88,88v296c0,22.1-17.9,40-40,40s-40-17.9-40-40v-24h16c4.4,0,8-3.6,8-8V184
			c0-4.4-3.6-8-8-8h-8V32c0-2.1-0.8-4.2-2.3-5.7l-24-24c-3.1-3.1-8.2-3.1-11.3,0l-24,24C92.8,27.8,92,29.9,92,32v144h-8
			c-4.4,0-8,3.6-8,8v176c0,4.4,3.6,8,8,8h16v24c0,48.6,39.4,88,88,88s88-39.4,88-88V96c0-22.1,17.9-40,40-40s40,17.9,40,40v384h16
			V96c0-30.9-25.1-56-56-56s-56,25.1-56,56v296c0,39.8-32.2,72-72,72c-39.8,0-72-32.2-72-72v-24h16v24c0,30.9,25.1,56,56,56
			s56-25.1,56-56V96c0-39.8,32.2-72,72-72c39.8,0,72,32.2,72,72v384h16V96C404,47.4,364.6,8,316,8z M108,35.3l16-16l16,16V56h-32
			C108,56,108,35.3,108,35.3z M108,72h32v24h-32C108,96,108,72,108,72z M108,112h32v24h-32C108,136,108,112,108,112z M108,152h32v24
			h-32C108,176,108,152,108,152z M92,352V192h64v160H92z"/>
	</g>
</g>
</svg>
