<?xml version="1.0" encoding="utf-8"?>
<!-- Generator: Adobe Illustrator 22.1.0, SVG Export Plug-In . SVG Version: 6.00 Build 0)  -->
<svg version="1.1" id="Capa_1" xmlns="http://www.w3.org/2000/svg" xmlns:xlink="http://www.w3.org/1999/xlink" x="0px" y="0px"
	 viewBox="0 0 60 60" style="enable-background:new 0 0 60 60;" xml:space="preserve">
<style type="text/css">
	.st0{fill:#49799F;}
	.st1{fill:#ED8849;}
</style>
<path class="st0" d="M55.6,29.2l-22-15c-0.3-0.2-0.7-0.2-1-0.1C32.2,14.3,32,14.6,32,15v13.1L11.6,14.2c-0.3-0.2-0.7-0.2-1-0.1
	C10.2,14.3,10,14.6,10,15v30c0,0.4,0.2,0.7,0.5,0.9C10.7,46,10.8,46,11,46s0.4-0.1,0.6-0.2L32,31.9V45c0,0.4,0.2,0.7,0.5,0.9
	C32.7,46,32.8,46,33,46s0.4-0.1,0.6-0.2l22-15c0.3-0.2,0.4-0.5,0.4-0.8S55.8,29.4,55.6,29.2z M12,43.1V16.9L31.2,30L12,43.1z
	 M34,43.1V16.9L53.2,30L34,43.1z"/>
<path class="st1" d="M30,0C13.5,0,0,13.5,0,30s13.5,30,30,30s30-13.5,30-30S46.5,0,30,0z M30,58C14.6,58,2,45.4,2,30S14.6,2,30,2
	s28,12.6,28,28S45.4,58,30,58z"/>
</svg>
