<?xml version="1.0" encoding="utf-8"?>
<!-- Generator: Adobe Illustrator 22.1.0, SVG Export Plug-In . SVG Version: 6.00 Build 0)  -->
<svg version="1.1" id="Capa_1" xmlns="http://www.w3.org/2000/svg" xmlns:xlink="http://www.w3.org/1999/xlink" x="0px" y="0px"
	 viewBox="0 0 480 480" style="enable-background:new 0 0 480 480;" xml:space="preserve">
<style type="text/css">
	.st0{fill:#FFFFFF;}
</style>
<g>
	<g>
		<path class="st0" d="M232,0c-2.2,0-4.3,0.9-5.8,2.5L84.6,152H8c-4.4,0-8,3.6-8,8v160c0,4.4,3.6,8,8,8h76.6l141.6,149.5
			c3,3.2,8.1,3.4,11.3,0.4c1.6-1.5,2.5-3.7,2.5-5.9V8C240,3.6,236.4,0,232,0z M192,418.1L96,316.8V192c0-4.4-3.6-8-8-8s-8,3.6-8,8
			v120H16V168h72c2.2,0,4.3-0.9,5.8-2.5L192,61.9V418.1z M224,451.9l-16.5-17.4c0.3-0.8,0.5-1.6,0.5-2.5V48c0-0.9-0.2-1.7-0.5-2.5
			L224,28.1V451.9z"/>
	</g>
</g>
<g>
	<g>
		<path class="st0" d="M409.7,70.3c-3.1-3.1-8.2-3.1-11.3,0c-3.1,3.1-3.1,8.2,0,11.3c87.5,87.5,87.5,229.3,0,316.8c0,0,0,0,0,0
			c-3.2,3.1-3.3,8.1-0.2,11.3c3.1,3.2,8.1,3.3,11.3,0.2c0.1-0.1,0.1-0.1,0.2-0.2C503.5,316,503.5,164,409.7,70.3z"/>
	</g>
</g>
<g>
	<g>
		<path class="st0" d="M358.8,121.2C358.8,121.2,358.8,121.2,358.8,121.2c-3.2-3.1-8.3-3-11.3,0.2c-3,3.1-3,8,0,11.1
			c59.4,59.4,59.4,155.6,0,215c-3.1,3.1-3.1,8.2,0,11.3c0,0,0,0,0,0c3.1,3.1,8.2,3.1,11.3,0C424.4,293.2,424.4,186.8,358.8,121.2z"
			/>
	</g>
</g>
<g>
	<g>
		<path class="st0" d="M307.9,172.1c-3.2-3.1-8.2-3-11.3,0.2c-3,3.1-3,8,0,11.1c31.2,31.2,31.2,81.9,0,113.1
			c-3.1,3.1-3.1,8.2,0,11.3c3.1,3.1,8.2,3.1,11.3,0C345.4,270.4,345.4,209.6,307.9,172.1z"/>
	</g>
</g>
</svg>
